<svg width="16" height="20" viewBox="0 0 16 20" fill="none" xmlns="http://www.w3.org/2000/svg">
<path d="M8.00004 9.78131C5.77638 9.78131 3.97358 7.59171 3.97358 4.89069C3.97358 2.1896 4.56546 0 8.00004 0C11.4346 0 12.0266 2.1896 12.0266 4.89069C12.0266 7.59171 10.2238 9.78131 8.00004 9.78131Z" fill="#5692EE"/>
<path d="M15.6052 17.2487C15.6059 17.084 15.6065 17.2023 15.6052 17.2487V17.2487Z" fill="#5692EE"/>
<path d="M0.39502 17.3774C0.392856 17.3323 0.394279 17.0646 0.39502 17.3774V17.3774Z" fill="#5692EE"/>
<path d="M0.40368 17.0513C0.478251 12.346 1.09277 11.0053 5.79522 10.1566C5.79522 10.1566 6.45717 11.0001 8.00002 11.0001C9.54288 11.0001 10.2049 10.1566 10.2049 10.1566C14.8561 10.996 15.508 12.3169 15.5937 16.8984C15.6007 17.2726 15.604 17.2922 15.6052 17.2488C15.6049 17.3302 15.6046 17.4807 15.6046 17.7431C15.6046 17.7431 14.4851 20 8.00002 20C1.51511 20 0.395451 17.7431 0.395451 17.7431C0.395451 17.5745 0.395336 17.4572 0.395164 17.3775C0.396422 17.4043 0.398937 17.3523 0.40368 17.0513Z" fill="#5692EE"/>
</svg>
