<svg width="20" height="17" viewBox="0 0 20 17" fill="none" xmlns="http://www.w3.org/2000/svg">
<path d="M1.9196 5.24008C2.1726 5.43321 2.93522 6.00683 4.20752 6.96063C5.47985 7.91443 6.45455 8.64884 7.13164 9.16388C7.20603 9.22034 7.36408 9.34307 7.60585 9.53223C7.84767 9.72152 8.0486 9.87448 8.20848 9.99116C8.36848 10.1078 8.5619 10.2386 8.78894 10.3835C9.0159 10.5282 9.22985 10.637 9.43074 10.7091C9.63167 10.7818 9.81766 10.8177 9.98876 10.8177H9.99998H10.0112C10.1823 10.8177 10.3684 10.7817 10.5693 10.7091C10.7702 10.637 10.9843 10.5281 11.2111 10.3835C11.4379 10.2385 11.6314 10.1077 11.7914 9.99116C11.9514 9.87448 12.1521 9.72152 12.394 9.53223C12.6358 9.3429 12.794 9.22034 12.8684 9.16388C13.5528 8.64884 15.294 7.34078 18.0915 5.23982C18.6347 4.82949 19.0884 4.33436 19.453 3.75478C19.8178 3.17545 20 2.5677 20 1.93188C20 1.40055 19.8232 0.945725 19.4697 0.567443C19.1163 0.189077 18.6977 0 18.2142 0H1.78564C1.21276 0 0.771891 0.20925 0.463111 0.627749C0.15437 1.04633 0 1.56954 0 2.19733C0 2.70443 0.20468 3.25394 0.613846 3.84553C1.02297 4.43716 1.45837 4.90205 1.9196 5.24008Z" fill="#5692EE"/>
<path d="M18.8838 6.53184C16.4435 8.31862 14.5906 9.70724 13.3259 10.6974C12.9018 11.0354 12.5578 11.2992 12.2936 11.4882C12.0293 11.6774 11.678 11.8705 11.2389 12.0676C10.8 12.2651 10.3909 12.3635 10.0114 12.3635H10H9.9888C9.60934 12.3635 9.20006 12.2651 8.76115 12.0676C8.32223 11.8705 7.97061 11.6774 7.70647 11.4882C7.44241 11.2992 7.09826 11.0354 6.6742 10.6974C5.66968 9.90059 3.82075 8.51188 1.12734 6.53184C0.703129 6.22617 0.327387 5.8758 0 5.48145V15.0679C0 15.5995 0.174776 16.054 0.524523 16.4324C0.874192 16.8108 1.29465 17 1.78575 17H18.2144C18.7053 17 19.1258 16.8108 19.4755 16.4324C19.8253 16.0539 20 15.5995 20 15.0679V5.48145C19.68 5.86763 19.3081 6.21801 18.8838 6.53184Z" fill="#5692EE"/>
</svg>
