<svg width="16" height="16" viewBox="0 0 16 16" fill="none" xmlns="http://www.w3.org/2000/svg">
<path d="M10 2C10 3.10463 9.10463 4 8 4C6.89537 4 6 3.10463 6 2C6 0.895368 6.89537 0 8 0C9.10463 0 10 0.895368 10 2Z" fill="white"/>
<path d="M10 14C10 15.1046 9.10463 16 8 16C6.89537 16 6 15.1046 6 14C6 12.8954 6.89537 12 8 12C9.10463 12 10 12.8954 10 14Z" fill="white"/>
<path d="M10 8C10 9.10463 9.10463 10 8 10C6.89537 10 6 9.10463 6 8C6 6.89537 6.89537 6 8 6C9.10463 6 10 6.89537 10 8Z" fill="white"/>
<path d="M16 2C16 3.10463 15.1046 4 14 4C12.8954 4 12 3.10463 12 2C12 0.895368 12.8954 0 14 0C15.1046 0 16 0.895368 16 2Z" fill="white"/>
<path d="M16 14C16 15.1046 15.1046 16 14 16C12.8954 16 12 15.1046 12 14C12 12.8954 12.8954 12 14 12C15.1046 12 16 12.8954 16 14Z" fill="white"/>
<path d="M16 8C16 9.10463 15.1046 10 14 10C12.8954 10 12 9.10463 12 8C12 6.89537 12.8954 6 14 6C15.1046 6 16 6.89537 16 8Z" fill="white"/>
<path d="M4 2C4 3.10463 3.10463 4 2 4C0.895368 4 0 3.10463 0 2C0 0.895368 0.895368 0 2 0C3.10463 0 4 0.895368 4 2Z" fill="white"/>
<path d="M4 14C4 15.1046 3.10463 16 2 16C0.895368 16 0 15.1046 0 14C0 12.8954 0.895368 12 2 12C3.10463 12 4 12.8954 4 14Z" fill="white"/>
<path d="M4 8C4 9.10463 3.10463 10 2 10C0.895368 10 0 9.10463 0 8C0 6.89537 0.895368 6 2 6C3.10463 6 4 6.89537 4 8Z" fill="white"/>
</svg>
