<svg width="20" height="20" viewBox="0 0 20 20" fill="none" xmlns="http://www.w3.org/2000/svg">
<path d="M0.0207188 14.7311L0 18.7712C0 18.9992 0.0828753 19.2271 0.248626 19.3928C0.414376 19.5586 0.621564 19.6414 0.849471 19.6414L4.86892 19.6207C5.09683 19.6207 5.30402 19.5378 5.46977 19.3721L19.3514 5.49049C19.6829 5.15899 19.6829 4.6203 19.3514 4.26808L15.3734 0.248626C15.0419 -0.0828753 14.5032 -0.0828753 14.151 0.248626L11.3746 3.04567L0.269345 14.1302C0.124313 14.296 0.0207188 14.5032 0.0207188 14.7311ZM14.7725 2.07188L17.5696 4.86892L15.9949 6.44355L13.1979 3.64651L14.7725 2.07188ZM1.74038 15.104L11.9755 4.86892L14.7725 7.66596L4.53742 17.8803L1.71966 17.9011L1.74038 15.104Z" fill="white"/>
</svg>
