<svg width="155" height="128" viewBox="0 0 155 128" fill="none" xmlns="http://www.w3.org/2000/svg">
<g opacity="0.5">
<path d="M14.2548 0H0V14.2548H14.2548V0Z" fill="white"/>
<path d="M7.72476e-05 39.0458H14.2549L14.2549 24.791H7.72476e-05L7.72476e-05 39.0458Z" fill="white"/>
<path d="M7.72476e-05 63.8367H14.2549L14.2549 49.5819H7.72476e-05L7.72476e-05 63.8367Z" fill="white"/>
<path d="M24.1711 63.8367L66.9355 63.8367V49.5819L24.1711 49.5819V63.8367Z" fill="white"/>
<path d="M24.1711 39.0458L66.9355 39.0458V24.791L24.1711 24.791V39.0458Z" fill="white"/>
<path d="M24.1711 14.2549L66.9355 14.2549V7.72476e-05L24.1711 7.72476e-05V14.2549Z" fill="white"/>
<path d="M78.1079 2.47913V12.5852C113.924 12.5852 142.968 41.5062 142.968 77.17C142.968 112.834 113.924 141.755 78.1079 141.755C42.2922 141.755 13.248 112.834 13.248 77.17C13.248 76.4876 13.2807 75.8052 13.297 75.1228H3.14783C3.13151 75.8052 3.09888 76.4876 3.09888 77.17C3.09888 118.423 36.6791 151.845 78.0916 151.845C119.52 151.845 153.084 118.407 153.084 77.17C153.101 35.917 119.52 2.47913 78.1079 2.47913Z" fill="white"/>
<path fill-rule="evenodd" clip-rule="evenodd" d="M76.6958 0.619751H78.4178C120.686 0.619751 154.96 34.8903 154.944 77.1707C154.944 119.434 120.686 153.704 78.4015 153.704C36.1336 153.704 1.85938 119.45 1.85938 77.17C1.85938 76.6877 1.87537 76.1816 1.89028 75.71C1.89724 75.4899 1.90396 75.2772 1.9087 75.078L1.94872 73.3973H15.5194L15.4774 75.16C15.4713 75.4184 15.4636 75.6606 15.4561 75.8944C15.4421 76.3319 15.4291 76.7401 15.4291 77.17C15.4291 111.949 43.6355 140.152 78.4178 140.152C113.2 140.152 141.406 111.949 141.406 77.17C141.406 42.3914 113.2 14.188 78.4178 14.188H76.6958V0.619751ZM80.1397 4.08319V10.7664C116.028 11.6798 144.85 41.0653 144.85 77.17C144.85 113.85 115.102 143.596 78.4178 143.596C41.7335 143.596 11.9852 113.85 11.9852 77.17C11.9852 77.0613 11.986 76.9513 11.9874 76.8408H5.30569C5.30416 76.9497 5.30329 77.0591 5.30329 77.17C5.30329 117.548 38.0351 150.26 78.4015 150.26C118.784 150.26 151.5 117.532 151.5 77.17V77.1693C151.515 37.3674 119.711 4.99818 80.1397 4.08319Z" fill="white"/>
<path d="M42.9042 81.516L60.7186 99.2518L112.496 48.9623L120.236 57.1455C120.236 57.1455 65.6825 112.228 64.0007 113.988C62.3188 115.732 60.3267 115.684 58.6122 113.988C56.8977 112.293 34.7073 90.3676 34.7073 90.3676L42.9042 81.516Z" fill="white"/>
<path fill-rule="evenodd" clip-rule="evenodd" d="M112.678 46.4832L122.715 57.0805L121.548 58.2574L120.326 57.053C121.548 58.2574 121.548 58.2576 121.547 58.258L121.546 58.2599L119.213 60.6121C117.726 62.1118 115.599 64.2561 113.042 66.8348C107.928 71.9922 101.091 78.8869 94.2027 85.8363C80.4127 99.7479 66.446 113.846 65.6234 114.705L65.6207 114.708L65.6179 114.711C64.5384 115.829 63.1977 116.527 61.7004 116.518C60.2165 116.508 58.8876 115.804 57.8101 114.74C56.9576 113.898 51.0124 108.032 45.2799 102.376L34.0296 91.2759L34.0288 91.2752C34.0286 91.275 34.0285 91.2749 35.2372 90.0574L34.0285 91.2749L32.8481 90.1103L43.3417 78.7946L61.1297 96.479L112.678 46.4832ZM37.6263 90.0045L47.6973 99.9412C53.4294 105.597 59.3753 111.464 60.2284 112.306C60.8566 112.926 61.3715 113.089 61.7232 113.092C62.0611 113.094 62.5472 112.95 63.1398 112.338C64.0223 111.416 78.0108 97.297 91.7584 83.4282C98.6472 76.4786 105.484 69.5838 110.598 64.4263C113.155 61.8475 115.282 59.7031 116.769 58.2034L117.937 57.0256L112.574 51.3637L61.0999 101.288L43.4423 83.733L37.6263 90.0045Z" fill="white"/>
</g>
</svg>
