<svg width="16" height="16" viewBox="0 0 16 16" fill="none" xmlns="http://www.w3.org/2000/svg">
<path d="M16 7.63767V13.9999C16 15.1046 15.1045 16 14.0001 16H1.99999C0.895544 16 0 15.1046 0 13.9999V7.63767C1.90964 9.19433 4.17286 10.1074 6.49997 10.3849V11C6.752 11.6056 7.34381 11.9999 8.00002 11.9999C8.65623 11.9999 9.24797 11.6056 9.50006 11V10.3849C11.827 10.1074 14.0907 9.19542 16 7.63767ZM16 6.00002V6.33597L15.6709 6.62312C13.8848 8.18258 11.7256 9.09366 9.50006 9.37879V8.99991H6.49997V9.37879C4.27443 9.09366 2.1157 8.18258 0.328632 6.62312L0 6.33597V6.00002C0 4.89558 0.895544 4.00003 1.99999 4.00003H3.00003V1.99998C3.00003 0.895543 3.89548 0 4.99999 0H11.0001C12.1045 0 13 0.895543 13 1.99998V4.00003H14C15.1045 4.00003 16 4.89558 16 6.00002ZM4.00004 4.00003H12V1.99998C12 1.44926 11.5519 1.00004 11.0001 1.00004H4.99999C4.44874 1.00004 4.00004 1.44926 4.00004 1.99998V4.00003Z" fill="white"/>
</svg>
