<svg width="24" height="15" viewBox="0 0 24 15" fill="none" xmlns="http://www.w3.org/2000/svg">
<path opacity="0.5" d="M0.267759 6.60172C1.51794 4.61385 3.19888 3.01659 5.31036 1.81001C7.42198 0.603382 9.65177 0 12 0C14.3482 0 16.5781 0.603154 18.6897 1.81001C20.8014 3.01659 22.4823 4.61385 23.7322 6.60172C23.9107 6.90551 24 7.20501 24 7.50023C24 7.79544 23.9107 8.09495 23.7322 8.39864C22.4823 10.3866 20.8014 11.984 18.6897 13.1903C16.5781 14.3971 14.3482 15 12 15C9.65172 15 7.42194 14.3991 5.31036 13.1969C3.19888 11.9946 1.51766 10.3951 0.267759 8.39864C0.089222 8.09495 0 7.79558 0 7.50023C0 7.20501 0.089222 6.90551 0.267759 6.60172ZM14.873 3.0404C14.0739 2.26353 13.1163 1.87495 12.0001 1.87495C11.8217 1.87495 11.6698 1.93589 11.5447 2.05734C11.4198 2.17884 11.3571 2.32647 11.3571 2.50005C11.3571 2.67376 11.4198 2.8213 11.5444 2.94262C11.6693 3.06425 11.8213 3.125 11.9998 3.125C12.7676 3.125 13.4241 3.38989 13.9686 3.91929C14.5134 4.44902 14.7856 5.08697 14.7856 5.83347C14.7856 6.00728 14.8483 6.15473 14.9732 6.27632C15.0983 6.398 15.25 6.4587 15.4286 6.4587C15.6072 6.4587 15.759 6.39786 15.884 6.27632C16.0091 6.15473 16.0716 6.0071 16.0716 5.83347C16.0716 4.74848 15.672 3.81732 14.873 3.0404ZM6.18072 11.7518C7.97096 12.8063 9.91066 13.3338 12 13.3338C14.0893 13.3338 16.029 12.8066 17.8191 11.7518C19.6093 10.6971 21.0981 9.27991 22.2856 7.50023C20.9285 5.45151 19.2276 3.91925 17.183 2.90381C17.7276 3.80646 18 4.78314 18 5.83342C18 7.43953 17.4128 8.81289 16.2388 9.95458C15.0648 11.0963 13.6517 11.6669 12 11.6669C10.3481 11.6669 8.93547 11.0959 7.76119 9.95458C6.58691 8.81321 5.99998 7.43953 5.99998 5.83342C5.99998 4.78314 6.27243 3.80633 6.81709 2.90381C4.77255 3.91925 3.07157 5.45165 1.71449 7.50023C2.90176 9.27991 4.39047 10.6971 6.18072 11.7518Z" fill="black"/>
</svg>
