<svg width="201" height="40" viewBox="0 0 201 40" fill="none" xmlns="http://www.w3.org/2000/svg">
<rect opacity="0.2" y="10" width="194" height="29" fill="#E5E5E5"/>
<path d="M11.6533 23.7988V32H5.82617V7.82812H15.4717C17.32 7.82812 18.9525 8.17122 20.3691 8.85742C21.7969 9.53255 22.8981 10.501 23.6729 11.7627C24.4587 13.0133 24.8516 14.4355 24.8516 16.0293C24.8516 18.3867 24.0049 20.2738 22.3115 21.6904C20.6292 23.096 18.3161 23.7988 15.3721 23.7988H11.6533ZM11.6533 19.2998H15.4717C16.6006 19.2998 17.4583 19.0176 18.0449 18.4531C18.6426 17.8887 18.9414 17.0918 18.9414 16.0625C18.9414 14.9336 18.637 14.0316 18.0283 13.3564C17.4196 12.6813 16.5895 12.3382 15.5381 12.3271H11.6533V19.2998ZM36.9541 23.4668H33.7998V32H27.9727V7.82812H37.4854C40.3519 7.82812 42.5931 8.46452 44.209 9.7373C45.8249 11.0101 46.6328 12.8086 46.6328 15.1328C46.6328 16.8151 46.2897 18.2096 45.6035 19.3164C44.9284 20.4232 43.8659 21.3197 42.416 22.0059L47.4629 31.751V32H41.2207L36.9541 23.4668ZM33.7998 18.9678H37.4854C38.5921 18.9678 39.4222 18.68 39.9756 18.1045C40.54 17.5179 40.8223 16.7044 40.8223 15.6641C40.8223 14.6237 40.54 13.8102 39.9756 13.2236C39.4111 12.626 38.5811 12.3271 37.4854 12.3271H33.7998V18.9678ZM70.6221 20.4121C70.6221 22.7695 70.1849 24.8558 69.3105 26.6709C68.4362 28.486 67.1911 29.8861 65.5752 30.8711C63.9704 31.8451 62.1387 32.332 60.0801 32.332C58.0215 32.332 56.1953 31.8617 54.6016 30.9209C53.0078 29.9691 51.7627 28.6133 50.8662 26.8535C49.9808 25.0938 49.516 23.0739 49.4717 20.7939V19.4326C49.4717 17.0641 49.9033 14.9779 50.7666 13.1738C51.641 11.3587 52.8861 9.95866 54.502 8.97363C56.1289 7.98861 57.9772 7.49609 60.0469 7.49609C62.0944 7.49609 63.9206 7.98307 65.5254 8.95703C67.1302 9.93099 68.3753 11.32 69.2607 13.124C70.1572 14.917 70.611 16.9756 70.6221 19.2998V20.4121ZM64.6953 19.3994C64.6953 16.9977 64.2913 15.1771 63.4834 13.9375C62.6865 12.6868 61.541 12.0615 60.0469 12.0615C57.125 12.0615 55.5811 14.2529 55.415 18.6357L55.3984 20.4121C55.3984 22.7806 55.7913 24.6012 56.5771 25.874C57.363 27.1468 58.5306 27.7832 60.0801 27.7832C61.5521 27.7832 62.6865 27.1579 63.4834 25.9072C64.2803 24.6566 64.6842 22.8581 64.6953 20.5117V19.3994ZM83.2559 7.82812H89.0664V24.4131C89.0664 25.9515 88.7067 27.3239 87.9873 28.5303C87.279 29.7367 86.2829 30.6719 84.999 31.3359C83.7262 32 82.304 32.332 80.7324 32.332C78.0983 32.332 76.0508 31.668 74.5898 30.3398C73.1289 29.0117 72.3984 27.1302 72.3984 24.6953H78.2422C78.2422 25.8021 78.4303 26.6045 78.8066 27.1025C79.194 27.6006 79.8359 27.8496 80.7324 27.8496C81.5404 27.8496 82.1602 27.5508 82.5918 26.9531C83.0345 26.3444 83.2559 25.4977 83.2559 24.4131V7.82812ZM107.743 21.7568H98.5791V27.5176H109.403V32H92.752V7.82812H109.437V12.3271H98.5791V17.4238H107.743V21.7568ZM131.334 23.8154C131.257 25.4977 130.803 26.9863 129.973 28.2812C129.143 29.5651 127.975 30.5612 126.47 31.2695C124.976 31.9779 123.266 32.332 121.34 32.332C118.163 32.332 115.662 31.2972 113.836 29.2275C112.01 27.1579 111.097 24.236 111.097 20.4619V19.2666C111.097 16.8981 111.506 14.8285 112.325 13.0576C113.155 11.2757 114.345 9.90332 115.895 8.94043C117.444 7.96647 119.237 7.47949 121.273 7.47949C124.206 7.47949 126.564 8.25423 128.346 9.80371C130.128 11.3421 131.14 13.4671 131.384 16.1787H125.573C125.529 14.7067 125.158 13.6497 124.461 13.0078C123.764 12.3659 122.701 12.0449 121.273 12.0449C119.824 12.0449 118.761 12.5872 118.086 13.6719C117.411 14.7565 117.057 16.4886 117.023 18.8682V20.5781C117.023 23.1569 117.344 24.9997 117.986 26.1064C118.639 27.2132 119.757 27.7666 121.34 27.7666C122.679 27.7666 123.703 27.4512 124.411 26.8203C125.119 26.1895 125.496 25.1878 125.54 23.8154H131.334ZM152.567 12.3271H145.312V32H139.485V12.3271H132.363V7.82812H152.567V12.3271ZM174.564 32H168.953V14.1367L163.441 15.7471V11.4971L174.05 7.82812H174.564V32ZM198.155 14.2861C198.155 15.4593 197.862 16.4941 197.275 17.3906C196.7 18.2871 195.903 19.0065 194.885 19.5488C196.036 20.1133 196.949 20.888 197.624 21.873C198.299 22.847 198.637 24.0036 198.637 25.3428C198.637 27.501 197.89 29.2054 196.396 30.4561C194.912 31.7067 192.865 32.332 190.253 32.332C187.63 32.332 185.56 31.7067 184.044 30.4561C182.528 29.1943 181.77 27.4899 181.77 25.3428C181.77 24.0479 182.102 22.9023 182.766 21.9062C183.43 20.9102 184.37 20.1243 185.588 19.5488C184.559 19.0065 183.751 18.2871 183.164 17.3906C182.577 16.4941 182.284 15.4593 182.284 14.2861C182.284 12.1833 182.998 10.5231 184.426 9.30566C185.854 8.08822 187.779 7.47949 190.203 7.47949C192.649 7.47949 194.586 8.08822 196.014 9.30566C197.441 10.5231 198.155 12.1833 198.155 14.2861ZM193.025 24.8945C193.025 23.8984 192.765 23.1348 192.245 22.6035C191.736 22.0612 191.061 21.79 190.22 21.79C189.379 21.79 188.698 22.0612 188.178 22.6035C187.658 23.1348 187.397 23.8984 187.397 24.8945C187.397 25.8574 187.658 26.6211 188.178 27.1855C188.709 27.7389 189.401 28.0156 190.253 28.0156C191.083 28.0156 191.753 27.7389 192.262 27.1855C192.771 26.6322 193.025 25.8685 193.025 24.8945ZM190.203 11.7959C189.451 11.7959 188.875 12.0449 188.477 12.543C188.089 13.0299 187.896 13.7106 187.896 14.585C187.896 15.4482 188.095 16.1455 188.493 16.6768C188.892 17.208 189.478 17.4736 190.253 17.4736C191.017 17.4736 191.587 17.208 191.963 16.6768C192.35 16.1455 192.544 15.4482 192.544 14.585C192.544 13.7217 192.345 13.041 191.946 12.543C191.559 12.0449 190.978 11.7959 190.203 11.7959Z" fill="white"/>
</svg>
