<svg width="203" height="201" viewBox="0 0 203 201" fill="none" xmlns="http://www.w3.org/2000/svg">
<path d="M18.6411 0H0V18.6411H18.6411V0Z" fill="white"/>
<path d="M-1.52588e-05 51.0604H18.6411L18.6411 32.4193H-1.52588e-05L-1.52588e-05 51.0604Z" fill="white"/>
<path d="M-1.52588e-05 83.4799H18.6411L18.6411 64.8387H-1.52588e-05L-1.52588e-05 83.4799Z" fill="white"/>
<path d="M31.6088 83.4799H87.5322V64.8387H31.6088V83.4799Z" fill="white"/>
<path d="M31.6088 51.0604L87.5322 51.0604V32.4193L31.6088 32.4193V51.0604Z" fill="white"/>
<path d="M31.6088 18.6411L87.5322 18.6411V-1.52588e-05L31.6088 -1.52588e-05V18.6411Z" fill="white"/>
<path d="M102.142 3.24194V16.4578C148.979 16.4578 186.96 54.278 186.96 100.916C186.96 147.554 148.979 185.374 102.142 185.374C55.3059 185.374 17.3246 147.554 17.3246 100.916C17.3246 100.023 17.3673 99.1311 17.3886 98.2387H4.1165C4.09516 99.1311 4.05249 100.023 4.05249 100.916C4.05249 154.863 47.9657 198.569 102.121 198.569C156.298 198.569 200.19 154.842 200.19 100.916C200.211 46.9689 156.298 3.24194 102.142 3.24194Z" fill="white"/>
<path fill-rule="evenodd" clip-rule="evenodd" d="M100.296 0.810425H102.547C157.822 0.810425 202.643 45.6264 202.621 100.917C202.621 156.185 157.822 201 102.526 201C47.2521 201 2.4314 156.206 2.4314 100.916C2.4314 100.285 2.45232 99.6232 2.47181 99.0066C2.48091 98.7187 2.4897 98.4406 2.4959 98.1802L2.54824 95.9822H20.2947L20.2398 98.2873C20.2318 98.6252 20.2217 98.9419 20.2119 99.2477C20.1937 99.8198 20.1766 100.354 20.1766 100.916C20.1766 146.396 57.0624 183.278 102.547 183.278C148.033 183.278 184.918 146.396 184.918 100.916C184.918 55.4356 148.033 18.5538 102.547 18.5538H100.296V0.810425ZM104.799 5.3396V14.0792C151.731 15.2738 189.422 53.7014 189.422 100.916C189.422 148.883 150.52 187.781 102.547 187.781C54.5751 187.781 15.673 148.883 15.673 100.916C15.673 100.774 15.674 100.63 15.6759 100.485H6.93817C6.93617 100.628 6.93504 100.771 6.93504 100.916C6.93504 153.718 49.7387 196.497 102.526 196.497C155.334 196.497 198.117 153.698 198.117 100.916V100.915C198.138 48.8656 156.546 6.53613 104.799 5.3396Z" fill="white"/>
<path d="M56.1064 106.599L79.4025 129.792L147.113 64.0282L157.234 74.7295C157.234 74.7295 85.8938 146.761 83.6944 149.063C81.495 151.344 78.89 151.28 76.6479 149.063C74.4059 146.846 45.3872 118.174 45.3872 118.174L56.1064 106.599Z" fill="white"/>
<path fill-rule="evenodd" clip-rule="evenodd" d="M147.35 60.7863L160.476 74.6444L158.949 76.1836L157.351 74.6086C158.949 76.1836 158.949 76.1838 158.948 76.1844L158.946 76.1868L155.895 79.2628C153.95 81.2239 151.17 84.0281 147.826 87.4003C141.138 94.1447 132.198 103.161 123.189 112.249C105.156 130.441 86.8918 148.877 85.8161 150.001L85.8125 150.005L85.8088 150.009C84.3971 151.471 82.6439 152.384 80.6859 152.371C78.7454 152.358 77.0076 151.438 75.5985 150.047C74.4836 148.946 66.7092 141.275 59.2127 133.878L44.5005 119.362L44.4995 119.361C44.4993 119.361 44.4992 119.361 46.0798 117.769L44.4992 119.361L42.9556 117.838L56.6781 103.04L79.9396 126.166L147.35 60.7863ZM49.204 117.7L62.374 130.694C69.8699 138.09 77.6453 145.762 78.761 146.864C79.5824 147.675 80.2557 147.888 80.7157 147.891C81.1576 147.894 81.7932 147.706 82.5682 146.905C83.7223 145.7 102.015 127.236 119.993 109.1C129.001 100.012 137.942 90.9951 144.63 84.2506C147.974 80.8784 150.755 78.0741 152.7 76.1129L154.227 74.5728L147.214 67.1686L79.9006 132.455L56.8096 109.498L49.204 117.7Z" fill="white"/>
</svg>
