<svg width="16" height="16" viewBox="0 0 16 16" fill="none" xmlns="http://www.w3.org/2000/svg">
<path d="M15.8186 9.59583H0.181406C0.0812187 9.59583 0 9.67704 0 9.77723V15.2557C0 15.5563 0.243656 15.7999 0.544219 15.7999H15.4558C15.7563 15.7999 16 15.5563 16 15.2557V9.77723C16 9.67704 15.9188 9.59583 15.8186 9.59583ZM8 14.2761C7.12975 14.2761 6.42178 13.5681 6.42178 12.6979C6.42178 11.8276 7.12978 11.1197 8 11.1197C8.87022 11.1197 9.57822 11.8277 9.57822 12.6979C9.57822 13.5681 8.87025 14.2761 8 14.2761Z" fill="white"/>
<path d="M1.06511 6.29953L0.276738 8.25822C0.228738 8.37743 0.316488 8.50737 0.445019 8.50737H1.23343C1.33361 8.50737 1.41483 8.42615 1.41483 8.32597V6.36725C1.4148 6.16775 1.13961 6.11444 1.06511 6.29953Z" fill="white"/>
<path d="M15.7269 8.25938L14.9714 6.35463C14.8976 6.1687 14.6213 6.22148 14.6213 6.42154V8.32629C14.6213 8.42648 14.7026 8.50769 14.8027 8.50769H15.5583C15.6864 8.50769 15.7742 8.37851 15.7269 8.25938Z" fill="white"/>
<path d="M12.8556 0.000610352H2.91458C2.61402 0.000610352 2.37036 0.244267 2.37036 0.544829V8.12758C2.37036 8.22776 2.45158 8.30898 2.55177 8.30898H13.2184C13.3186 8.30898 13.3998 8.22776 13.3998 8.12758V0.544798C13.3998 0.244267 13.1562 0.000610352 12.8556 0.000610352ZM6.68783 2.61283H9.08239C9.38296 2.61283 9.62661 2.85648 9.62661 3.15705C9.62661 3.45761 9.38296 3.70127 9.08239 3.70127H6.68783C6.38727 3.70127 6.14361 3.45761 6.14361 3.15705C6.14361 2.85652 6.38727 2.61283 6.68783 2.61283ZM10.5336 5.69673H5.23658C4.93602 5.69673 4.69236 5.45308 4.69236 5.15251C4.69236 4.85195 4.93602 4.6083 5.23658 4.6083H10.5336C10.8342 4.6083 11.0779 4.85195 11.0779 5.15251C11.0778 5.45308 10.8342 5.69673 10.5336 5.69673Z" fill="white"/>
</svg>
